<svg width="5" height="53" viewBox="0 0 23 53" fill="none" xmlns="http://www.w3.org/2000/svg">
<path fill-rule="evenodd" clip-rule="evenodd" d="M4.91301 21.2015L3.457 19.7454V19.7531L2.66101 18.9574L1.205 17.5051L2.66101 16.0489L3.457 15.2532L4.91301 13.7971L6.748 15.6318L5.29201 17.0879L4.91301 16.7094L4.11801 17.5051L4.91301 18.3008L5.709 17.5051L7.16501 16.0528V11.0779C7.16501 8.95348 8.74501 7.19218 10.796 6.91021V5.91368C10.775 5.90982 10.753 5.90596 10.73 5.9021C10.708 5.89824 10.686 5.89437 10.665 5.89051C10.116 5.78236 9.62601 5.52743 9.22801 5.16822C8.61401 4.61202 8.22701 3.81248 8.22701 2.92023C8.22701 1.52973 9.17001 0.355524 10.448 0.00403527C10.564 -0.0268649 10.634 0.127636 10.537 0.197161H10.533H10.529C9.83801 0.683838 9.386 1.48338 9.386 2.39493C9.386 3.41464 9.958 4.30688 10.8 4.75879C10.904 4.81673 11.016 4.86694 11.132 4.90943C11.395 5.00986 11.673 5.06779 11.962 5.07938H12.074C12.561 5.07938 13.021 4.94806 13.415 4.72017C13.523 4.65837 13.631 4.78969 13.55 4.88239C13.14 5.35748 12.588 5.70511 11.959 5.85575V6.90249C11.971 6.90249 11.982 6.9046 11.992 6.90661C12.002 6.90845 12.011 6.91021 12.02 6.91021C12.785 7.02995 13.484 7.3544 14.056 7.82563C14.994 8.59813 15.589 9.76848 15.589 11.074V15.1799L13.531 17.2347V11.0701C13.531 10.4985 13.307 9.98478 12.947 9.59853C12.542 9.16206 11.959 8.89555 11.314 8.91486C10.139 8.94576 9.22 9.93843 9.22 11.1126V16.8948L5.925 20.1895L4.91301 21.2015ZM12.581 1.75713C12.616 1.78417 12.635 1.83052 12.62 1.87301L12.411 2.51805C12.38 2.61461 12.489 2.69572 12.57 2.63392L12.771 2.48715L13.118 2.23222C13.118 2.23222 13.157 2.21291 13.18 2.21291C13.203 2.21291 13.222 2.22063 13.242 2.23222L13.79 2.63006C13.871 2.688 13.983 2.61075 13.949 2.51419L13.74 1.86915C13.725 1.82666 13.74 1.78031 13.779 1.75327L14.327 1.35543C14.408 1.29749 14.366 1.16617 14.265 1.16617H13.589C13.543 1.16617 13.504 1.13913 13.489 1.09278L13.28 0.44774C13.265 0.40139 13.222 0.378215 13.184 0.374352C13.141 0.374352 13.099 0.397528 13.083 0.44774L12.875 1.09278C12.859 1.13527 12.821 1.16617 12.774 1.16617H12.098C11.998 1.16617 11.956 1.29749 12.037 1.35543L12.585 1.75327L12.581 1.75713ZM7.162 23.7053V19.978L9.22101 17.9193V21.6466H10.345V11.0942C10.345 10.5264 10.805 10.0668 11.372 10.0668C11.94 10.0668 12.4 10.5264 12.4 11.0942V23.7053H10.345H9.22101H7.162ZM10.345 34.3927H12.4V36.4475H10.345V34.3927ZM13.527 34.3927H15.582V36.4475H13.527V34.3927ZM13.523 46.0028H15.577V43.948H13.523V46.0028ZM13.523 18.1092V23.7098H15.581V18.9589L17.037 17.5066L17.833 16.7109L18.625 17.5066L17.833 18.3023L17.455 17.9238L15.998 19.3761L17.833 21.2108L19.285 19.7546L20.081 18.9589L21.533 17.5066L20.081 16.0504L19.285 15.2548L17.833 13.8025L16.377 15.2548L16.134 15.4981L15.581 16.0504L13.523 18.1092ZM15.582 52.3721H10.344L10.348 52.376H7.166V43.948H12.403V46.0028H9.22V50.3172H10.344V47.1307H15.582V52.3721ZM13.523 49.1894H12.399V50.3172H13.523V49.1894ZM15.582 40.7664V37.5798H10.344V40.7664H9.22V24.8374H7.166V42.8212H15.586V40.7664H15.582ZM13.527 40.7664H12.403V39.6385H13.527V40.7664ZM10.345 24.8388H12.4V24.8349H15.582V33.2629H10.345V31.2081H13.527V30.0802H10.345V24.8388ZM12.403 28.0254H13.527V26.8975H12.403V28.0254ZM6.08 24.8374C6.01 24.8374 5.941 24.8374 5.875 24.8489C5.667 24.8683 5.466 24.9223 5.276 24.9996C5.191 25.0343 5.114 25.0768 5.037 25.1193C4.971 25.1579 4.90601 25.2043 4.84401 25.2506C4.77001 25.3086 4.69701 25.3704 4.63101 25.436C4.57001 25.4978 4.51201 25.5635 4.45801 25.633C4.39601 25.7141 4.33801 25.7953 4.28801 25.888C4.26401 25.9304 4.241 25.9729 4.222 26.0154C4.203 26.054 4.18701 26.0927 4.17201 26.1313C4.11401 26.2742 4.071 26.4287 4.048 26.5871C4.041 26.6301 4.03701 26.6764 4.03401 26.7198L4.033 26.73C4.029 26.784 4.02501 26.8382 4.02501 26.8922V50.3184H2.05901C1.95901 50.3184 1.862 50.3261 1.765 50.3377C1.642 50.357 1.51801 50.384 1.40201 50.4227C1.31301 50.4497 1.228 50.4845 1.147 50.5269C0.765003 50.7162 0.448003 51.0213 0.244003 51.3999C0.189003 51.4964 0.147 51.5969 0.112 51.7011C0.0389995 51.9136 0 52.1415 0 52.3771H6.08V24.8374ZM20.889 50.3477C21.013 50.3631 21.136 50.394 21.252 50.4326C21.341 50.4635 21.426 50.4983 21.507 50.5369C21.893 50.7262 22.21 51.0352 22.411 51.4099C22.461 51.5064 22.507 51.6068 22.542 51.7111C22.616 51.9236 22.654 52.1515 22.654 52.3871H16.575V24.8473C16.644 24.8473 16.714 24.8512 16.779 24.8589C16.992 24.8782 17.193 24.9323 17.378 25.0096C17.459 25.0443 17.54 25.083 17.617 25.1293C17.683 25.1718 17.749 25.2143 17.811 25.2606C17.884 25.3147 17.957 25.3804 18.023 25.446C18.085 25.504 18.143 25.5735 18.197 25.643C18.262 25.7241 18.317 25.8091 18.367 25.8979C18.39 25.9404 18.413 25.9829 18.432 26.0254C18.452 26.064 18.467 26.1027 18.483 26.1413C18.541 26.2881 18.583 26.4387 18.606 26.5971C18.614 26.6434 18.622 26.6899 18.622 26.74C18.629 26.7939 18.629 26.8479 18.629 26.9019V50.3284H20.595C20.696 50.3284 20.792 50.3322 20.889 50.3477Z" fill="url(#paint0_linear_2_355)"/>
<defs>
<linearGradient id="paint0_linear_2_355" x1="19.614" y1="24.8475" x2="19.614" y2="52.3872" gradientUnits="userSpaceOnUse">
<stop stop-color="#279297"/>
<stop offset="1" stop-color="#126767"/>
</linearGradient>
</defs>
</svg>
